<svg width="211" height="200" viewBox="0 0 211 200" fill="none" xmlns="http://www.w3.org/2000/svg">
<circle cx="111" cy="100" r="100" fill="white"/>
<path d="M159.805 104.115C162.541 104.903 165.426 103.325 165.928 100.522C167.01 94.4798 166.972 88.2752 165.802 82.22C164.304 74.4729 160.994 67.1903 156.142 60.9676C151.291 54.7448 145.035 49.7587 137.888 46.4167C132.301 43.8047 126.293 42.255 120.169 41.8304C117.329 41.6335 115.095 44.0465 115.191 46.8925V46.8925C115.288 49.7385 117.681 51.9326 120.516 52.2056C125.009 52.6384 129.408 53.8358 133.52 55.7583C139.194 58.4109 144.159 62.3688 148.01 67.3081C151.861 72.2475 154.488 78.0281 155.677 84.1774C156.539 88.6339 156.627 93.1924 155.951 97.6553C155.524 100.471 157.068 103.327 159.805 104.115V104.115Z" fill="#FF9437"/>
<path d="M146.161 105.526C148.286 106.137 150.525 104.912 150.921 102.737C151.808 97.866 151.786 92.8603 150.841 87.976C149.643 81.7784 146.995 75.9523 143.114 70.9741C139.233 65.9959 134.228 62.0069 128.51 59.3334C124.004 57.2264 119.154 55.9835 114.214 55.6561C112.008 55.5099 110.274 57.3826 110.349 59.592V59.592C110.424 61.8014 112.281 63.5058 114.483 63.7071C118.158 64.0433 121.758 65.0139 125.119 66.5855C129.693 68.7239 133.696 71.9145 136.8 75.8964C139.905 79.8783 142.023 84.5383 142.981 89.4956C143.686 93.1388 143.749 96.8665 143.179 100.513C142.837 102.697 144.037 104.914 146.161 105.526V105.526Z" fill="#FF9437"/>
<path d="M132.669 103.98C134.098 104.391 135.602 103.568 135.884 102.108C136.607 98.3586 136.609 94.4972 135.881 90.732C134.982 86.0838 132.996 81.7142 130.085 77.9805C127.175 74.2469 123.421 71.2552 119.133 69.25C115.659 67.6258 111.913 66.6863 108.101 66.4732C106.616 66.3902 105.451 67.6482 105.501 69.1341V69.1341C105.551 70.6199 106.8 71.7683 108.282 71.8804C111.244 72.1043 114.148 72.863 116.852 74.1272C120.371 75.7725 123.451 78.2273 125.839 81.2909C128.228 84.3545 129.858 87.9399 130.595 91.754C131.162 94.6846 131.189 97.6862 130.684 100.613C130.431 102.078 131.24 103.569 132.669 103.98V103.98Z" fill="#FF9437"/>
<path d="M123.582 104.263C124.643 104.569 125.762 103.957 125.96 102.87C126.404 100.434 126.393 97.9306 125.921 95.488C125.322 92.3892 123.998 89.4761 122.057 86.987C120.116 84.4979 117.614 82.5035 114.755 81.1667C112.501 80.113 110.076 79.4915 107.605 79.328C106.503 79.255 105.637 80.1906 105.674 81.2945V81.2945C105.712 82.3984 106.64 83.25 107.74 83.3505C109.579 83.5185 111.379 84.0039 113.061 84.7901C115.348 85.8595 117.35 87.4551 118.903 89.4464C120.455 91.4377 121.514 93.7682 121.994 96.2472C122.346 98.0698 122.377 99.9346 122.092 101.759C121.921 102.85 122.521 103.958 123.582 104.263V104.263Z" fill="#FF9437"/>
<path d="M182.781 68.5422C187.456 66.5935 192.874 68.8103 194.308 73.6688C199.69 91.9118 199.115 111.525 192.526 129.618C184.88 150.613 169.687 168.047 149.925 178.504C130.163 188.96 107.258 191.684 85.6975 186.143C64.1373 180.602 45.4772 167.194 33.3746 148.548C21.272 129.903 16.5994 107.363 20.2728 85.3467C23.9462 63.3308 35.7006 43.4262 53.2322 29.5342C70.7638 15.6421 92.8086 8.76441 115.046 10.249C134.218 11.529 152.341 18.9455 166.799 31.275C170.644 34.5534 170.478 40.386 166.822 43.8732V43.8732C163.164 47.362 157.403 47.1693 153.471 43.9926C142.209 34.8935 128.343 29.4264 113.711 28.4495C96.0084 27.2676 78.4592 32.7428 64.5027 43.8019C50.5462 54.861 41.1888 70.7066 38.2645 88.2329C35.3402 105.759 39.0599 123.703 48.6945 138.546C58.3291 153.39 73.184 164.063 90.3475 168.474C107.511 172.886 125.746 170.717 141.477 162.393C157.209 154.069 169.304 140.19 175.391 123.476C180.43 109.64 181.051 94.6871 177.293 80.657C175.992 75.7962 178.136 70.478 182.781 68.5422V68.5422Z" fill="#FF7700" fill-opacity="0.8"/>
<path d="M182.781 68.5422C187.456 66.5935 192.874 68.8103 194.308 73.6688C199.69 91.9118 199.115 111.525 192.526 129.618C184.88 150.613 169.687 168.047 149.925 178.504C130.163 188.96 107.258 191.684 85.6975 186.143C64.1373 180.602 45.4772 167.194 33.3746 148.548C21.272 129.903 16.5994 107.363 20.2728 85.3467C23.9462 63.3308 35.7006 43.4262 53.2322 29.5342C70.7638 15.6421 92.8086 8.76441 115.046 10.249C134.218 11.529 152.341 18.9455 166.799 31.275C170.644 34.5534 170.478 40.386 166.822 43.8732V43.8732C163.164 47.362 157.403 47.1693 153.471 43.9926C142.209 34.8935 128.343 29.4264 113.711 28.4495C96.0084 27.2676 78.4592 32.7428 64.5027 43.8019C50.5462 54.861 41.1888 70.7066 38.2645 88.2329C35.3402 105.759 39.0599 123.703 48.6945 138.546C58.3291 153.39 73.184 164.063 90.3475 168.474C107.511 172.886 125.746 170.717 141.477 162.393C157.209 154.069 169.304 140.19 175.391 123.476C180.43 109.64 181.051 94.6871 177.293 80.657C175.992 75.7962 178.136 70.478 182.781 68.5422V68.5422Z" fill="white" fill-opacity="0.2"/>
<path d="M61.6973 33C88.8239 33.0001 109.742 54.5535 109.778 77.4043C103.77 127.281 94.9013 157.765 85.6426 172.479C80.9953 179.865 76.435 182.994 72.3232 183C68.218 183.006 64.0025 179.897 60.0469 173.396L59.7432 172.896L59.1582 172.916C45.4337 173.395 34.6846 173.859 26.3174 174.104C17.9423 174.35 12.0326 174.374 7.9873 173.982C5.96477 173.787 4.4644 173.491 3.37891 173.096C2.29757 172.702 1.70834 172.238 1.38965 171.753C1.07677 171.277 0.935112 170.644 1.02832 169.723C1.12308 168.786 1.45272 167.633 2 166.199C4.15273 160.561 9.53412 151.109 13.5156 136.9C17.5204 122.609 20.1945 103.325 17.1865 77.415C17.2113 54.4594 34.6663 33 61.6973 33Z" fill="black" stroke="black" stroke-width="2"/>
<path d="M67.6973 27C94.8239 27.0001 115.742 48.5535 115.778 71.4043C109.77 121.281 100.901 151.765 91.6426 166.479C86.9953 173.865 82.435 176.994 78.3232 177C74.218 177.006 70.0025 173.897 66.0469 167.396L65.7432 166.896L65.1582 166.916C51.4337 167.395 40.6846 167.859 32.3174 168.104C23.9423 168.35 18.0326 168.374 13.9873 167.982C11.9648 167.787 10.4644 167.491 9.37891 167.096C8.29757 166.702 7.70834 166.238 7.38965 165.753C7.07677 165.277 6.93511 164.644 7.02832 163.723C7.12308 162.786 7.45272 161.633 8 160.199C10.1527 154.561 15.5341 145.109 19.5156 130.9C23.5204 116.609 26.1945 97.3252 23.1865 71.415C23.2113 48.4594 40.6663 27 67.6973 27Z" fill="white" stroke="black" stroke-width="2"/>
<ellipse cx="112" cy="67" rx="4" ry="11" fill="black"/>
</svg>
